<svg width="98" height="15" viewBox="0 0 98 15" fill="none" xmlns="http://www.w3.org/2000/svg">
<path d="M7.5 0L9.18386 5.18237H14.6329L10.2245 8.38525L11.9084 13.5676L7.5 10.3647L3.09161 13.5676L4.77547 8.38525L0.367076 5.18237H5.81614L7.5 0Z" fill="#FFF84E"/>
<path d="M30.5 0L32.1839 5.18237H37.6329L33.2245 8.38525L34.9084 13.5676L30.5 10.3647L26.0916 13.5676L27.7755 8.38525L23.3671 5.18237H28.8161L30.5 0Z" fill="#FFF84E"/>
<path d="M52.5 0L54.1839 5.18237H59.6329L55.2245 8.38525L56.9084 13.5676L52.5 10.3647L48.0916 13.5676L49.7755 8.38525L45.3671 5.18237H50.8161L52.5 0Z" fill="#FFF84E"/>
<path d="M75.5 0L77.1839 5.18237H82.6329L78.2245 8.38525L79.9084 13.5676L75.5 10.3647L71.0916 13.5676L72.7755 8.38525L68.3671 5.18237H73.8161L75.5 0Z" fill="#FFF84E"/>
<path d="M98 0L97.9999 5.34752V9.28681L98 10.695L93.0557 14L94.9443 8.65248L90 5.34752H96.1115L98 0Z" fill="#FFF84E"/>
</svg>
